<?xml version="1.0" encoding="utf-8"?>
<!-- Generator: Adobe Illustrator 16.0.0, SVG Export Plug-In . SVG Version: 6.00 Build 0)  -->
<!DOCTYPE svg PUBLIC "-//W3C//DTD SVG 1.1//EN" "http://www.w3.org/Graphics/SVG/1.1/DTD/svg11.dtd">
<svg version="1.1" id="Layer_1" xmlns="http://www.w3.org/2000/svg" xmlns:xlink="http://www.w3.org/1999/xlink" x="0px" y="0px"
	 width="2900px" height="1700px" viewBox="0 0 2900 1700" enable-background="new 0 0 2900 1700" xml:space="preserve">
<rect x="-5" y="-1" fill-rule="evenodd" clip-rule="evenodd" fill="#0C192C" width="2935.064" height="1720.554"/>
<path fill-rule="evenodd" clip-rule="evenodd" fill="#153F56" d="M596.217,1479.641H2419.9c73.523,0,100.236,2.536,100.236-70.984
	V358.368c0-73.521-60.154-133.673-133.674-133.673H562.777c-73.519,0-133.673,60.15-133.673,133.673v1050.288
	C429.104,1482.177,522.696,1479.641,596.217,1479.641z"/>
<path opacity="0.19" fill-rule="evenodd" clip-rule="evenodd" d="M1452.033,1007.33h-77.73c-82.07,0-148.602-66.53-148.602-148.602
	V661.09c-20.207-0.718-36.369-17.321-36.369-37.705c0-20.383,16.162-36.987,36.369-37.704v-8.243c0-5.851,0.283-11.636,0.807-17.351
	c6.836-96.22,86.283-172.361,183.863-173.954c19.756-23.786,49.552-38.935,82.888-38.935c59.15,0,107.156,47.69,107.684,106.717
	h0.012v0.979v124.857v0.094c0.004,1.973,0.145,3.913,0.408,5.814c20.184,0.283,36.531,16.408,37.172,36.501
	c1.684,0.202,3.398,0.309,5.137,0.309c17.291,0,32.148-10.294,38.869-25.068c-3.02,42.437-38.379,75.933-81.586,75.933
	c-0.107,0-0.213-0.004-0.32-0.004v185.398c0,22.428-4.977,43.692-13.873,62.757c70.352,48.872,103.361,120.571,146.84,194.273
	l95.715,141.09c11.059,16.306,6.809,38.487-9.496,49.551c-16.305,11.061-38.488,6.809-49.549-9.495l-76.387-112.602
	l-117.059-118.665l-40.641-84.427C1512.262,997.681,1483.275,1007.33,1452.033,1007.33z"/>
<path opacity="0.19" fill-rule="evenodd" clip-rule="evenodd" d="M712.725,642.305c-1.565-14.731,3.295-30.016,14.589-41.312
	c19.835-19.83,51.994-19.83,71.833,0l4.126,4.126c33.25-29.142,83.874-27.861,115.592,3.855l88.598,88.596
	c0.483,0.31,0.931,0.662,1.333,1.064c0.401,0.4,0.753,0.848,1.063,1.33l0.795,0.795l-0.238,0.238
	c7.064,15.308-22.654,62.564-69.53,109.439c-46.874,46.871-94.124,76.596-109.44,69.534l-0.372,0.372l-1.977-1.977l-0.02-0.019
	l-0.018-0.02l-89.773-89.771c-3.7-3.7-6.983-7.659-9.854-11.815l-79.048,174.374c3.139,10.793,2.101,21.939-2.264,31.568
	c-0.288,0.635-0.591,1.263-0.907,1.884c0.727,1.485,1.393,3.023,1.989,4.609l0.002,0.008l95.23,253.167
	c4.092,10.878,4.263,22.126,1.231,31.512c-2.354,7.287-6.616,13.491-12.479,17.672c7.771,4.671,14.021,11.613,17.831,19.91h61.47
	h4.7c19.743,0,35.746,16.004,35.746,35.747c0,15.706-10.129,29.042-24.211,33.839c-4.895,2.42-10.405,3.781-16.235,3.781H620.602
	c-20.26,0-36.683-16.423-36.683-36.683c0-20.261,16.423-36.685,36.683-36.685h48.31c4.762-10.372,13.338-18.628,23.934-22.973
	c-6.348-5.137-11.679-12.372-14.957-21.089l-95.229-253.166c-1.686-4.482-2.706-9.026-3.11-13.478
	c-6.903-5.032-12.476-12.053-15.744-20.62l-0.004-0.009l-0.075-0.197c-4.444-11.813-3.684-24.302,1.14-34.94
	c4.029-8.889,10.887-16.495,19.907-21.353l102.216-225.481c1.978-4.363,4.474-8.301,7.342-11.736
	c-1.337-8.505-0.292-17.479,3.522-25.897l0.005-0.01h-0.001C701.271,652.969,706.469,646.813,712.725,642.305L712.725,642.305z
	 M600.693,918.492c8.55-1.104,17.072,0.27,24.655,3.708c7.029,3.188,13.256,8.144,17.957,14.54l78.592-173.369
	c-6.417-14.306-8.659-30.028-6.729-45.325c-6.827-4.278-12.206-10.165-15.862-16.925c-0.359,0.686-0.702,1.389-1.028,2.105
	L600.693,918.492L600.693,918.492z M642.795,991.591l-0.009,0.011l0.625-0.235l-0.171,0.057L642.795,991.591L642.795,991.591z
	 M638.66,996.296c-4.432,4.394-9.839,7.945-16.055,10.286l-0.031,0.012c-9.712,3.652-19.879,3.786-29.1,1.04
	c0.231,0.742,0.486,1.484,0.765,2.226l95.229,253.165c3.08,8.192,8.441,14.572,14.615,18.263c5.739,3.431,12.158,4.477,17.888,2.323
	c5.731-2.156,9.869-7.168,11.922-13.524c2.213-6.852,2.042-15.186-1.037-23.374L638.66,996.296z"/>
<path fill-rule="evenodd" clip-rule="evenodd" fill="#FFFFFF" d="M590.103,440.592h200.255c9.915,0,18.023,8.109,18.023,18.022
	c0,9.914-8.109,18.023-18.023,18.023H590.103c-9.914,0-18.023-8.11-18.023-18.023C572.08,448.702,580.189,440.592,590.103,440.592z"
	/>
<path fill-rule="evenodd" clip-rule="evenodd" fill="#FFFFFF" d="M861.17,440.592h37.328c9.911,0,18.021,8.11,18.021,18.022
	c0,9.912-8.11,18.023-18.021,18.023H861.17c-9.912,0-18.021-8.11-18.021-18.023C843.149,448.702,851.258,440.592,861.17,440.592z"/>
<path fill-rule="evenodd" clip-rule="evenodd" fill="#FFFFFF" d="M1601.279,276.084h200.254c9.914,0,18.025,8.109,18.025,18.023
	c0,9.913-8.111,18.022-18.025,18.022h-200.254c-9.914,0-18.023-8.11-18.023-18.022
	C1583.256,284.193,1591.365,276.084,1601.279,276.084z"/>
<path fill-rule="evenodd" clip-rule="evenodd" fill="#FFFFFF" d="M1721.109,345.322h37.326c9.912,0,18.023,8.111,18.023,18.023
	s-8.111,18.023-18.023,18.023h-37.326c-9.912,0-18.023-8.11-18.023-18.023C1703.086,353.432,1711.197,345.322,1721.109,345.322z"/>
<path opacity="0.17" fill-rule="evenodd" clip-rule="evenodd" d="M2249.014,641.059h-232.9c-19.434,0-36.275-11.673-43.859-28.351
	c6.045,2.747,12.746,4.279,19.789,4.279l232.9-0.001c26.477,0,48.139-21.661,48.139-48.138V344.25
	c0-7.043-1.533-13.743-4.279-19.788c16.678,7.583,28.35,24.425,28.35,43.859l0.002,224.597
	C2297.154,619.396,2275.49,641.059,2249.014,641.059z"/>
<path fill-rule="evenodd" clip-rule="evenodd" fill="#FFFFFF" d="M1992.043,608.965c-22.121,0-40.117-17.996-40.117-40.116
	l0.002-224.598c0-22.12,17.994-40.115,40.115-40.115h232.9c22.117,0,40.115,17.997,40.115,40.115l0.002,224.597
	c0,22.12-18,40.117-40.117,40.117H1992.043z"/>
<path fill-rule="evenodd" clip-rule="evenodd" fill="#98D4C5" d="M2224.057,304.135h-232.898c-22.121,0-40.117,17.997-40.117,40.115
	v224.597c0,22.12,17.996,40.117,40.117,40.117h232.898c22.121,0,40.117-17.996,40.117-40.116V344.25
	C2264.174,322.131,2246.178,304.135,2224.057,304.135z"/>
<path fill-rule="evenodd" clip-rule="evenodd" fill="#006991" d="M2224.943,296.11h-232.9c-26.477,0-48.141,21.664-48.141,48.14
	v224.597c0,26.478,21.662,48.14,48.141,48.14l232.9-0.001c26.477,0,48.139-21.661,48.139-48.138V344.25
	C2273.082,317.774,2251.42,296.111,2224.943,296.11L2224.943,296.11z M2224.943,316.972c15.041,0,27.277,12.237,27.277,27.279
	l0.002,224.597c0,15.042-12.238,27.28-27.279,27.28l-232.9,0c-15.043,0-27.279-12.237-27.279-27.278V344.25
	c0-15.042,12.236-27.278,27.279-27.278L2224.943,316.972z"/>
<line fill-rule="evenodd" clip-rule="evenodd" fill="none" stroke="#443B49" stroke-width="8.1828" stroke-linecap="round" stroke-linejoin="round" stroke-miterlimit="10" x1="2107.609" y1="455.899" x2="2088.572" y2="534.943"/>
<circle fill-rule="evenodd" clip-rule="evenodd" fill="#443B49" cx="2107.608" cy="455.899" r="9.55"/>
<line fill-rule="evenodd" clip-rule="evenodd" fill="none" stroke="#153F56" stroke-width="8.1828" stroke-linecap="round" stroke-linejoin="round" stroke-miterlimit="10" x1="2107.609" y1="455.899" x2="2168.477" y2="401.947"/>
<line fill-rule="evenodd" clip-rule="evenodd" fill="none" stroke="#153F56" stroke-width="14.7294" stroke-linecap="round" stroke-linejoin="round" stroke-miterlimit="10" x1="2108.154" y1="455.899" x2="2079.111" y2="415.965"/>
<line fill-rule="evenodd" clip-rule="evenodd" fill="none" stroke="#443B49" stroke-width="11.4559" stroke-linecap="round" stroke-linejoin="round" stroke-miterlimit="10" x1="2107.336" y1="359.935" x2="2110.607" y2="359.935"/>
<line fill-rule="evenodd" clip-rule="evenodd" fill="none" stroke="#443B49" stroke-width="11.4559" stroke-linecap="round" stroke-linejoin="round" stroke-miterlimit="10" x1="2050.932" y1="359.935" x2="2054.34" y2="359.935"/>
<line fill-rule="evenodd" clip-rule="evenodd" fill="none" stroke="#443B49" stroke-width="11.4559" stroke-linecap="round" stroke-linejoin="round" stroke-miterlimit="10" x1="2007.57" y1="401.647" x2="2007.57" y2="398.239"/>
<line fill-rule="evenodd" clip-rule="evenodd" fill="none" stroke="#443B49" stroke-width="11.4559" stroke-linecap="round" stroke-linejoin="round" stroke-miterlimit="10" x1="2007.57" y1="459.711" x2="2007.57" y2="456.439"/>
<line fill-rule="evenodd" clip-rule="evenodd" fill="none" stroke="#443B49" stroke-width="11.4559" stroke-linecap="round" stroke-linejoin="round" stroke-miterlimit="10" x1="2007.57" y1="514.637" x2="2007.57" y2="511.229"/>
<line fill-rule="evenodd" clip-rule="evenodd" fill="none" stroke="#443B49" stroke-width="11.4559" stroke-linecap="round" stroke-linejoin="round" stroke-miterlimit="10" x1="2055.156" y1="551.682" x2="2051.75" y2="551.682"/>
<line fill-rule="evenodd" clip-rule="evenodd" fill="none" stroke="#443B49" stroke-width="11.4559" stroke-linecap="round" stroke-linejoin="round" stroke-miterlimit="10" x1="2108.973" y1="551.682" x2="2105.697" y2="551.682"/>
<line fill-rule="evenodd" clip-rule="evenodd" fill="none" stroke="#443B49" stroke-width="11.4559" stroke-linecap="round" stroke-linejoin="round" stroke-miterlimit="10" x1="2162.924" y1="551.682" x2="2159.516" y2="551.682"/>
<line fill-rule="evenodd" clip-rule="evenodd" fill="none" stroke="#443B49" stroke-width="11.4559" stroke-linecap="round" stroke-linejoin="round" stroke-miterlimit="10" x1="2207.777" y1="513.255" x2="2207.777" y2="516.664"/>
<line fill-rule="evenodd" clip-rule="evenodd" fill="none" stroke="#443B49" stroke-width="11.4559" stroke-linecap="round" stroke-linejoin="round" stroke-miterlimit="10" x1="2207.777" y1="454.801" x2="2207.777" y2="458.074"/>
<line fill-rule="evenodd" clip-rule="evenodd" fill="none" stroke="#443B49" stroke-width="11.4559" stroke-linecap="round" stroke-linejoin="round" stroke-miterlimit="10" x1="2207.777" y1="397.849" x2="2207.777" y2="401.258"/>
<line fill-rule="evenodd" clip-rule="evenodd" fill="none" stroke="#443B49" stroke-width="11.4559" stroke-linecap="round" stroke-linejoin="round" stroke-miterlimit="10" x1="2158.697" y1="359.781" x2="2162.105" y2="359.935"/>
<path fill-rule="evenodd" clip-rule="evenodd" fill="#3295AB" d="M2224.064,583.822c-0.002,0-0.004,0.001-0.006,0.001
	l-227.191-0.001v-8.636h227.191c1.754-0.002,3.314-0.704,4.479-1.86c1.158-1.164,1.859-2.724,1.859-4.478V349.96h8.637v218.888
	c0.002,4.121-1.688,7.891-4.389,10.586C2231.949,582.134,2228.184,583.823,2224.064,583.822z"/>
<path fill-rule="evenodd" clip-rule="evenodd" fill="#005F7C" d="M2000.102,596.127h-8.059c-15.043,0-27.279-12.237-27.279-27.278
	V344.25c0-15.042,12.236-27.278,27.279-27.278l232.9,0c15.041,0,27.277,12.237,27.277,27.279l0.002,5.709h-13.189h-8.637h-222.869
	c-5.877,0-10.66,4.782-10.66,10.658v214.568v8.636v4.667C1996.867,591.48,1998.107,594.189,2000.102,596.127L2000.102,596.127z
	 M2107.609,329.275l-116.451,0c0,0-0.002,0-0.004,0c0.002,0,0.004,0,0.004,0H2107.609L2107.609,329.275z M1978.264,336.64
	c-0.063,0.104-0.123,0.208-0.182,0.313L1978.264,336.64L1978.264,336.64z M1991.158,337.912h116.451H1991.158L1991.158,337.912z"/>
<g>
	<g>
		<path fill-rule="evenodd" clip-rule="evenodd" fill="#1E476C" d="M2496.936,1488.728H463.183
			c-17.513,0-31.709-14.198-31.709-31.711v-72.842c0-17.513,14.197-31.708,31.709-31.708h2033.753
			c17.512,0,31.709,14.195,31.709,31.708l0.002,72.842C2528.646,1474.529,2514.447,1488.728,2496.936,1488.728z"/>
		<path fill-rule="evenodd" clip-rule="evenodd" fill="#02698C" d="M2528.652,1353.88v22.784c0,7.463-2.592,14.37-6.961,19.795
			c-5.795,7.25-14.74,11.908-24.77,11.908H463.19c-17.517,0-31.729-14.211-31.729-31.703v-22.784
			c0-17.519,14.211-31.729,31.729-31.729h2033.732C2514.441,1322.151,2528.65,1336.361,2528.652,1353.88z"/>
	</g>
	<polygon fill-rule="evenodd" clip-rule="evenodd" fill="#4880B2" points="1756.426,1408.367 1738.654,1488.727 1467.854,1488.727 
		1485.625,1408.367 	"/>
	<polygon fill-rule="evenodd" clip-rule="evenodd" fill="#4880B2" points="1402.127,1408.367 1384.356,1488.727 1300.344,1488.727 
		1318.116,1408.367 	"/>
</g>
<path fill-rule="evenodd" clip-rule="evenodd" fill="#F5D441" d="M1430.726,1019.17h-74.716
	c-78.887,0-142.836-63.949-142.836-142.837V605.954c0-99.52,80.674-180.196,180.193-180.196
	c99.519,0,180.195,80.676,180.195,180.196v270.379C1573.563,955.221,1509.611,1019.17,1430.726,1019.17z"/>
<path opacity="0.35" fill-rule="evenodd" clip-rule="evenodd" d="M1773.463,1322.151v-0.855c0,14.218-10.449,25.743-23.324,25.743
	l-340.413,29.668c-11.009,1.85-22.206,1.882-33.212,0.097l-319.664-26.521c-12.875,0-23.323-11.523-23.321-25.742v-2.39H1773.463z"
	/>
<rect x="1349.752" y="864.156" fill-rule="evenodd" clip-rule="evenodd" fill="#F3AF87" width="82.591" height="93.588"/>
<path fill-rule="evenodd" clip-rule="evenodd" fill="#006991" d="M1197.214,969.424l-209.917,288.668
	c-11.139,15.316-7.75,36.764,7.566,47.901s36.761,7.75,47.899-7.566l209.915-288.671c11.141-15.316,7.752-36.761-7.564-47.898
	C1229.797,950.719,1208.35,954.107,1197.214,969.424z"/>
<path fill-rule="evenodd" clip-rule="evenodd" fill="#006991" d="M1540.787,1008.841l195.832,288.67
	c10.631,15.672,31.953,19.759,47.627,9.127c15.67-10.634,19.758-31.955,9.125-47.628l-195.83-288.671
	c-10.631-15.671-31.955-19.758-47.629-9.126C1534.242,971.845,1530.154,993.169,1540.787,1008.841z"/>
<path fill-rule="evenodd" clip-rule="evenodd" fill="#006991" d="M1235.226,1330.689V1012.45
	c0-56.828,38.204-105.162,90.194-120.569c7.756-2.315,15.806-3.879,24.093-4.631c3.773-0.354,7.594-0.531,11.457-0.531l65.703-0.001
	c1.844,0,3.672,0.045,5.5,0.133c8.021,0.34,15.852,1.446,23.43,3.246c55.338,13.151,96.814,63.152,96.814,122.354v318.239H1235.226z
	"/>
<path fill-rule="evenodd" clip-rule="evenodd" fill="#FFFFFF" d="M1455.604,890.097c-7.579-1.8-15.409-2.905-23.43-3.246
	c11.575,10.928,18.799,26.41,18.799,43.587c0,33.088-26.834,59.923-59.921,59.923c-33.103,0-59.924-26.834-59.924-59.923
	c0-16.971,7.047-32.291,18.386-43.188c-8.286,0.751-16.337,2.315-24.093,4.631c-6.679,11.309-10.514,24.491-10.514,38.557
	c0.001,41.979,34.15,76.144,76.145,76.144c41.978-0.001,76.142-34.164,76.142-76.144
	C1467.193,915.634,1462.945,901.804,1455.604,890.097z"/>
<circle fill-rule="evenodd" clip-rule="evenodd" fill="#F3AF87" cx="1391.048" cy="930.434" r="59.923"/>
<path fill-rule="evenodd" clip-rule="evenodd" fill="#006991" d="M1463.043,893.161l87.635,182.055l113.027,114.58l55.754-36.872
	C1650.105,1044.641,1619.02,934.363,1463.043,893.161z"/>
<path fill-rule="evenodd" clip-rule="evenodd" fill="#F3AF87" d="M1781.277,1238.736l-88.186-50.18
	c-20.1-11.435-45.66-4.414-57.098,15.685c-11.436,20.098-4.414,45.659,15.684,57.095l88.188,50.181
	c20.1,11.435,45.66,4.413,57.098-15.685C1808.398,1275.735,1801.375,1250.172,1781.277,1238.736z"/>
<path fill-rule="evenodd" clip-rule="evenodd" fill="#F3AF87" d="M1031.989,1308.063l81.589-46.426
	c16.46-9.366,22.21-30.3,12.846-46.761c-9.366-16.461-30.303-22.211-46.763-12.845l-81.588,46.426
	c-16.461,9.365-22.212,30.3-12.846,46.76C994.592,1311.68,1015.53,1317.43,1031.989,1308.063z"/>
<path fill-rule="evenodd" clip-rule="evenodd" fill="#006991" d="M1321.782,894.143l-78.347,181.073L1126.151,1194.3l-51.498-41.376
	C1144.004,1044.641,1173.653,928.477,1321.782,894.143z"/>
<path fill-rule="evenodd" clip-rule="evenodd" fill="#F3AF87" d="M1040.819,1311.517l88.188-50.181
	c20.098-11.436,27.119-36.997,15.682-57.095c-11.436-20.099-36.998-27.119-57.097-15.685l-88.185,50.18
	c-20.099,11.436-27.12,37-15.686,57.096C995.159,1315.93,1020.72,1322.951,1040.819,1311.517z"/>
<g>
	
		<rect x="1058.318" y="1028.025" transform="matrix(0.9772 -0.2122 0.2122 0.9772 -199.9502 255.0903)" fill-rule="evenodd" clip-rule="evenodd" fill="#98D4C5" width="60.783" height="62.519"/>
	<polygon fill-rule="evenodd" clip-rule="evenodd" fill="#6ECCE0" points="1733.166,1074.862 1727.414,1137.123 1711.783,1135.681 
		1668.629,1131.717 1666.9,1131.554 1672.633,1069.293 	"/>
	<polygon fill-rule="evenodd" clip-rule="evenodd" fill="#2DC1D6" points="1711.783,1135.681 1668.629,1131.717 1682.146,1071.488 	
		"/>
	
		<rect x="1056.588" y="1104.862" transform="matrix(0.9987 0.0507 -0.0507 0.9987 58.9482 -53.6047)" fill-rule="evenodd" clip-rule="evenodd" fill="#FFFFFF" width="60.783" height="62.522"/>
	<g>
		
			<line fill-rule="evenodd" clip-rule="evenodd" fill="none" stroke="#F3AF87" stroke-width="26.9436" stroke-linecap="round" stroke-linejoin="round" stroke-miterlimit="10" x1="1489.939" y1="1315.458" x2="1450.419" y2="1329.214"/>
		<path fill-rule="evenodd" clip-rule="evenodd" fill="#FFFFFF" d="M1395.823,987.729c16.467-44.405,93.621-45.489,167.187-29.041
			c33.148,8.922,66.641,18.257,82.91,6.947l14.76,20.401l-241.787,24.743L1395.823,987.729z"/>
		<path fill-rule="evenodd" clip-rule="evenodd" fill="#FFFFFF" d="M1388.053,985.125c-16.47-44.405-93.622-45.488-167.189-29.04
			c-33.146,8.922-66.639,18.255-82.91,6.946l-14.758,20.402l241.785,24.741L1388.053,985.125z"/>
		<path fill-rule="evenodd" clip-rule="evenodd" fill="#FFD731" d="M1670.813,981.782l-4.148,335.933l-234.717,24.204v0.02
			c-9.482,12.423-24.495,18.479-39.801,18.479c-15.558,0-31.428-6.251-42.06-18.421l-235.515-24.204l-9.288-336.731l244.764,23.99
			v-0.059c0.176,0.272,0.331,0.507,0.564,0.759l80.868-0.097c0.176-0.215,0.312-0.447,0.467-0.662v-0.039l8.919-0.856l32.148-3.136
			L1670.813,981.782z"/>
		<path fill-rule="evenodd" clip-rule="evenodd" fill="#F5D441" d="M1683.174,988.122v336.971l-248.742,24.19v0.045
			c-20.276,25.059-64.422,24.161-86.771,0.059l-249.594-24.19V988.226l249.549,24.192v-0.061c17.848,25.074,68.482,25.736,86.816,0
			v-0.029L1683.174,988.122z"/>
		<path fill-rule="evenodd" clip-rule="evenodd" fill="#B6A034" d="M1434.869,1012.264v336.973l-0.442,0.051v0.053
			c-20.263,25.029-64.41,24.146-86.756,0.053l-0.366-0.025v-336.973l0.313,0.025v-0.051c17.84,25.08,68.474,25.732,86.809,0v-0.053
			L1434.869,1012.264z"/>
		<polygon fill-rule="evenodd" clip-rule="evenodd" fill="#FFD731" points="1098.059,988.229 1105.293,981.06 1108.072,989.199 		
			"/>
		<polygon fill-rule="evenodd" clip-rule="evenodd" fill="#FFD731" points="1683.168,988.13 1670.82,981.802 1669.41,989.468 		"/>
		<path fill-rule="evenodd" clip-rule="evenodd" fill="#F5D441" d="M1392.289,1078.674c-15.026,0-29.427-4.676-39.099-12.603
			l0.001-9.163c9.905,6.093,23.196,9.535,37.803,9.535c14.649,0,28.011-3.501,37.99-9.697v9.51
			C1420.484,1074.174,1407.264,1078.674,1392.289,1078.674z"/>
		<path fill-rule="evenodd" clip-rule="evenodd" fill="#F5D441" d="M1392.289,1112.534h-0.004c-15.026,0-29.423-4.678-39.095-12.604
			l0.001-9.163c10.055,6.236,23.574,9.763,38.432,9.763c14.396,0,27.529-3.42,37.361-9.474v9.059
			C1420.484,1108.031,1407.266,1112.531,1392.289,1112.534z"/>
		<path fill-rule="evenodd" clip-rule="evenodd" fill="#F5D441" d="M1391.743,1313.295c-14.99,0-29.266-4.57-38.782-12.322
			l0.104-9.764c9.977,6.198,23.406,9.701,38.17,9.701c14.624,0,28.003-3.522,37.953-9.741l0.159,9.48
			C1420.743,1308.603,1406.898,1313.295,1391.743,1313.295z"/>
		<path fill-rule="evenodd" clip-rule="evenodd" fill="#B6A034" d="M1391.086,985.125c-16.642,0-31.385,8.127-40.475,20.63
			c1.381,2.003,3.022,3.878,4.846,5.546c18.049,16.825,53.027,17.164,71.207-0.078l0.001-0.025c1.796-1.667,3.41-3.517,4.818-5.548
			C1422.394,993.198,1407.702,985.126,1391.086,985.125z"/>
		<path fill-rule="evenodd" clip-rule="evenodd" fill="#153748" d="M1426.666,1011.197v0.025
			c-18.181,17.242-53.159,16.903-71.208,0.078c7.709-11.46,20.784-18.986,35.629-18.986
			C1405.881,992.314,1418.928,999.789,1426.666,1011.197z"/>
		<path opacity="0.44" fill-rule="evenodd" clip-rule="evenodd" d="M1473.014,1000.962l-32.148,3.136
			c-1.869-4.304-5.998-15.344-9.152-17.486l31.138,4.187C1465.674,993.057,1469.354,996.484,1473.014,1000.962z"/>
		<path opacity="0.52" fill-rule="evenodd" clip-rule="evenodd" d="M1445.229,1011.279c-1.392-2.554-2.858-4.853-4.283-7.007
			l-0.08-0.175l6.559-0.639c1.112,1.621,2.182,3.329,3.196,5.117c0.391,0.676,0.772,1.364,1.141,2.066L1445.229,1011.279z"/>
		<path opacity="0.46" fill-rule="evenodd" clip-rule="evenodd" d="M1446.844,1155.104c-9.736-30.279-6.427-51.42,2.661-87.767
			c6.325-29.255,1.735-45.024-4.276-56.058l6.533-0.638c0.793,1.504,1.539,3.065,2.229,4.672l0,0
			c3.217,7.442,5.309,15.984,5.311,25.429c0.004,5.479-0.699,11.265-2.293,17.313c-4.945,13.731-7.38,27.813-7.374,42.226
			c0.004,13.735,2.225,27.774,6.596,42.103L1446.844,1155.104L1446.844,1155.104z M1479.381,1147.334l-16.967-9.271l8.049-10.124
			l3.912,2.135C1475.383,1135.803,1477.018,1141.52,1479.381,1147.334z"/>
		<path fill-rule="evenodd" clip-rule="evenodd" fill="#0C192C" d="M1489.566,1050.246c-10.418,35.147-11.217,60.52-0.002,88.111
			l-19.102-10.418l-13.455,16.922c-9.736-30.26-9.93-59.234,0-86.807c4.342-16.474,2.064-30.98-3.018-42.741
			c-1.014-2.356-2.143-4.615-3.37-6.737c-2.453-4.323-5.238-8.179-8.137-11.488c-4.149-4.791-8.492-8.49-12.248-10.924l36.897-4.771
			c2.162,1.889,4.869,4.576,7.691,7.945c2.98,3.563,6.115,7.866,8.883,12.754c1.633,2.843,3.133,5.899,4.438,9.094
			C1492.797,1022.654,1494.725,1036.207,1489.566,1050.246z"/>
		<path fill-rule="evenodd" clip-rule="evenodd" fill="#46123F" d="M1534.416,1073.671l71.576-8.197L1534.416,1073.671z"/>
		
			<line fill-rule="evenodd" clip-rule="evenodd" fill="none" stroke="#B6A034" stroke-width="13.0224" stroke-linecap="round" stroke-miterlimit="10" x1="1534.416" y1="1073.669" x2="1605.992" y2="1065.474"/>
		<path fill-rule="evenodd" clip-rule="evenodd" fill="#46123F" d="M1552.924,1097.708l40.18-4.892L1552.924,1097.708z"/>
		
			<line fill-rule="evenodd" clip-rule="evenodd" fill="none" stroke="#B6A034" stroke-width="13.0224" stroke-linecap="round" stroke-miterlimit="10" x1="1552.924" y1="1097.706" x2="1593.104" y2="1092.816"/>
		<path fill-rule="evenodd" clip-rule="evenodd" fill="#46123F" d="M1522.703,1311.135l88.791-9.542L1522.703,1311.135z"/>
		
			<line fill-rule="evenodd" clip-rule="evenodd" fill="none" stroke="#B6A034" stroke-width="13.0224" stroke-linecap="round" stroke-miterlimit="10" x1="1522.703" y1="1311.135" x2="1611.494" y2="1301.593"/>
		<path fill-rule="evenodd" clip-rule="evenodd" fill="#0C192C" d="M1457.008,1144.861c-0.264-0.828-0.523-1.653-0.777-2.479
			c-4.371-14.328-6.592-28.367-6.596-42.103c-0.007-14.414,2.428-28.494,7.374-42.226c1.596-6.048,2.295-11.833,2.293-17.313
			c0-9.444-2.094-17.986-5.311-25.429c8.158-1.986,24.924-2.901,34.154-4.128c2.709,6.675,4.492,14.057,4.496,21.828
			c0,5.582-0.918,11.363-3.076,17.232c-5.309,17.916-8.121,33.294-8.113,47.719c0.006,13.873,2.617,26.866,8.113,40.393
			l-15.189-8.283l-3.912-2.135l-8.049,10.124L1457.008,1144.861z"/>
		<path fill-rule="evenodd" clip-rule="evenodd" fill="#0C192C" d="M1483.703,1002.092c-11.332,0.817-22.373,2.96-33.083,6.484
			c-2.453-4.323-5.238-8.179-8.137-11.488c10.493-3.739,21.28-6.328,32.34-7.75C1477.805,992.9,1480.941,997.204,1483.703,1002.092z
			"/>
	</g>
</g>
<path fill-rule="evenodd" clip-rule="evenodd" fill="#F3AF87" d="M1393.676,933.646c-25.361,0-45.922-20.561-45.922-45.921V822.44
	h91.842v65.285C1439.596,913.086,1419.037,933.646,1393.676,933.646z"/>
<g>
	<path opacity="0.48" fill-rule="evenodd" clip-rule="evenodd" d="M1647.602,1222.26l-0.061-0.345
		c-5.686,1.396-11.686-1.301-14.336-6.621c-0.131-0.263-0.252-0.554-0.367-0.827c-2.4-5.814-0.164-12.367,5.012-15.579l-7.162,2.958
		c-6.48,2.665-9.541,10.072-6.885,16.537c0.123,0.29,0.254,0.555,0.385,0.817c2.941,5.9,9.99,8.62,16.172,6.059L1647.602,1222.26z"
		/>
	<path opacity="0.5" fill-rule="evenodd" clip-rule="evenodd" d="M1674.67,1274.771c-5.615,2.146-12.205,15.508-14.834,10.234
		c-0.158-0.32-0.291-0.632-0.432-0.961c-1.633-4.175-0.676-8.722,2.088-11.863l0.639-0.243c-0.027-0.333-0.029-0.668-0.023-1.002
		l-5.166,2.03c-0.924,0.366-1.771,0.835-2.543,1.41l-0.039,0.02l-3.469,1.302c-6.113,2.319-12.918-0.428-15.773-6.158
		c-0.188-0.376-0.359-0.762-0.518-1.177c-1.463-3.835-0.922-7.94,1.088-11.177c1.082-0.189,2.166-0.516,3.23-0.976l1.703-0.751
		c-0.195-0.736-0.324-1.49-0.377-2.251l-0.098,0.036l-0.027-0.009l-0.037,0.019l-0.213,0.082l-0.156-0.158
		c-4-0.806-7.596-3.39-9.541-7.292c-0.1-0.206-0.195-0.395-0.271-0.592c-3.07-6.916,0.076-15.003,6.982-18.045l10.762-4.745
		l-0.01-0.059l-19.76,8.729c-6.926,3.052-10.055,11.128-7.01,18.035c0.084,0.216,0.176,0.405,0.271,0.592
		c1.943,3.902,5.539,6.486,9.541,7.293c-5.006,3.129-7.281,9.465-5.105,15.201c0.15,0.397,0.32,0.783,0.51,1.159
		c2.863,5.747,9.67,8.497,15.783,6.178l11.391-4.337c-3.355,3.134-4.65,8.133-2.859,12.674c0.113,0.318,0.252,0.65,0.404,0.952
		c2.648,5.313,7.682,9.884,15.531,9.394l18.146-1.473C1693.494,1275.26,1674.719,1274.881,1674.67,1274.771z"/>
	
		<line fill-rule="evenodd" clip-rule="evenodd" fill="none" stroke="#FECE9A" stroke-width="25.2683" stroke-linecap="round" stroke-linejoin="round" stroke-miterlimit="10" x1="1645.104" y1="1264.558" x2="1700.637" y2="1243.449"/>
	
		<line fill-rule="evenodd" clip-rule="evenodd" fill="none" stroke="#FECE9A" stroke-width="27.3742" stroke-linecap="round" stroke-linejoin="round" stroke-miterlimit="10" x1="1641.109" y1="1240.437" x2="1694.682" y2="1216.811"/>
	
		<line fill-rule="evenodd" clip-rule="evenodd" fill="none" stroke="#FECE9A" stroke-width="25.338" stroke-linecap="round" stroke-linejoin="round" stroke-miterlimit="10" x1="1643.244" y1="1210.292" x2="1686.6" y2="1192.378"/>
	<path fill-rule="evenodd" clip-rule="evenodd" fill="#FECE9A" d="M1673.113,1291.269l42.006-16.462
		c5.953-2.334,8.891-9.054,6.557-15.009c-2.334-5.956-9.055-8.891-15.01-6.559l-42.002,16.464c-5.955,2.335-8.895,9.053-6.559,15.01
		C1660.441,1290.667,1667.16,1293.604,1673.113,1291.269z"/>
</g>
<g>
	<path opacity="0.44" fill-rule="evenodd" clip-rule="evenodd" d="M1124.875,1226.674l0.059-0.345
		c5.686,1.396,11.686-1.301,14.337-6.618c0.133-0.266,0.253-0.558,0.366-0.83c2.402-5.814,0.163-12.364-5.01-15.579l7.16,2.958
		c6.481,2.666,9.543,10.072,6.885,16.537c-0.123,0.292-0.254,0.555-0.384,0.82c-2.942,5.897-9.991,8.618-16.171,6.055
		L1124.875,1226.674z"/>
	<path opacity="0.5" fill-rule="evenodd" clip-rule="evenodd" d="M1145.719,1253.621c-0.07,0.221-0.176,0.413-0.264,0.604
		c-1.941,3.898-5.548,6.475-9.55,7.285c5.019,3.133,7.283,9.461,5.105,15.199c-0.146,0.397-0.308,0.779-0.5,1.163
		c-2.87,5.754-9.668,8.49-15.788,6.18l-11.391-4.342c3.357,3.135,4.652,8.138,2.856,12.671c-0.104,0.323-0.251,0.646-0.397,0.956
		c-2.65,5.312-7.682,9.888-15.539,9.388l-1.207-0.104v-33.49c2.119,2.192,4.237,4.812,5.445,6.387v-0.163l5.163,2.031
		c0.913,0.367,1.767,0.839,2.545,1.413l0.031,0.014l3.472,1.295c6.109,2.324,12.92-0.426,15.774-6.149
		c0.193-0.384,0.354-0.766,0.517-1.178c1.457-3.841,0.926-7.947-1.091-11.184c-1.089-0.177-2.161-0.516-3.236-0.971l-1.691-0.75
		c0.19-0.736,0.323-1.487,0.367-2.253l0.104,0.031h0.029l0.029,0.014l0.22,0.09l0.148-0.164c4.001-0.809,7.607-3.384,9.549-7.298
		c0.104-0.207,0.192-0.383,0.264-0.589c3.077-6.916-0.071-14.995-6.972-18.04l-10.772-4.754l0.014-0.059l19.762,8.741
		C1145.649,1238.642,1148.768,1246.721,1145.719,1253.621z"/>
	
		<line fill-rule="evenodd" clip-rule="evenodd" fill="none" stroke="#FECE9A" stroke-width="25.2683" stroke-linecap="round" stroke-linejoin="round" stroke-miterlimit="10" x1="1119.879" y1="1267.869" x2="1068.627" y2="1237.823"/>
	
		<line fill-rule="evenodd" clip-rule="evenodd" fill="none" stroke="#FECE9A" stroke-width="27.3742" stroke-linecap="round" stroke-linejoin="round" stroke-miterlimit="10" x1="1127.827" y1="1244.75" x2="1078.928" y2="1212.547"/>
	
		<line fill-rule="evenodd" clip-rule="evenodd" fill="none" stroke="#FECE9A" stroke-width="25.338" stroke-linecap="round" stroke-linejoin="round" stroke-miterlimit="10" x1="1130.735" y1="1214.67" x2="1090.961" y2="1189.796"/>
	
		<line fill-rule="evenodd" clip-rule="evenodd" fill="none" stroke="#FECE9A" stroke-width="23.1633" stroke-linecap="round" stroke-linejoin="round" stroke-miterlimit="10" x1="1093.776" y1="1279.624" x2="1055.095" y2="1256.408"/>
</g>
<g>
	<polygon opacity="0.92" fill-rule="evenodd" clip-rule="evenodd" fill="#153748" points="2021.018,1116.124 2258.482,1095.118 
		2230.723,781.279 2042.127,797.961 1997.578,851.138 	"/>
	<g>
		
			<line fill-rule="evenodd" clip-rule="evenodd" fill="none" stroke="#E2C39A" stroke-width="2.9999" stroke-miterlimit="10" x1="2111.525" y1="699.458" x2="2167.279" y2="787.756"/>
		
			<line fill-rule="evenodd" clip-rule="evenodd" fill="none" stroke="#E2C39A" stroke-width="2.9999" stroke-miterlimit="10" x1="2111.525" y1="699.458" x2="2055.771" y2="787.756"/>
	</g>
	<polygon fill-rule="evenodd" clip-rule="evenodd" fill="#98D4C5" points="1992.33,1096.344 2230.723,1096.344 2230.723,781.279 
		2041.391,781.279 1992.33,830.324 	"/>
	<polygon fill-rule="evenodd" clip-rule="evenodd" fill="#153748" points="1992.34,830.326 2041.389,830.326 2041.389,781.279 	"/>
	<circle fill-rule="evenodd" clip-rule="evenodd" fill="#BF9E7C" cx="2111.525" cy="699.458" r="15.601"/>
	<g>
		<rect x="2028.592" y="844.781" fill-rule="evenodd" clip-rule="evenodd" fill="#1B4C75" width="160.783" height="10.491"/>
		<rect x="2028.592" y="875.094" fill-rule="evenodd" clip-rule="evenodd" fill="#1B4C75" width="160.783" height="10.491"/>
		<rect x="2028.592" y="905.406" fill-rule="evenodd" clip-rule="evenodd" fill="#1B4C75" width="160.783" height="10.491"/>
		<rect x="2028.592" y="935.72" fill-rule="evenodd" clip-rule="evenodd" fill="#1B4C75" width="160.783" height="10.492"/>
		<rect x="2128.68" y="966.033" fill-rule="evenodd" clip-rule="evenodd" fill="#1B4C75" width="60.695" height="10.491"/>
		<rect x="2128.68" y="996.346" fill-rule="evenodd" clip-rule="evenodd" fill="#1B4C75" width="60.695" height="10.491"/>
	</g>
</g>
<path fill-rule="evenodd" clip-rule="evenodd" fill="#0C192C" d="M1996.867,583.822h-5.709v-4.319v-4.317h5.709V583.822
	L1996.867,583.822z M1991.158,583.822v-4.319v-4.316c-1.756-0.002-3.314-0.704-4.48-1.861c-1.154-1.164-1.857-2.724-1.859-4.479
	V344.25c0.002-1.754,0.705-3.314,1.859-4.478c1.166-1.157,2.725-1.859,4.48-1.861l232.9,0c1.754,0.002,3.314,0.703,4.479,1.86
	c1.156,1.164,1.859,2.724,1.859,4.478v5.709h8.637v-5.709c0.002-4.121-1.686-7.89-4.389-10.585
	c-2.695-2.702-6.465-4.392-10.586-4.39l-232.9,0c0,0-0.002,0-0.004,0c-4.121,0-7.887,1.688-10.582,4.39
	c-2.703,2.695-4.393,6.463-4.393,10.585v224.598c0,4.121,1.689,7.889,4.393,10.585
	C1983.268,582.136,1987.035,583.824,1991.158,583.822z"/>
<g>
	<g>
		<path fill-rule="evenodd" clip-rule="evenodd" fill="#F5D441" d="M1470.352,384.646c-57.171,0-103.519,46.347-103.519,103.519
			v133.273c0,5.294,4.293,9.585,9.586,9.585h187.867c5.293,0,9.584-4.291,9.584-9.585V488.165
			C1573.869,430.993,1527.523,384.646,1470.352,384.646z"/>
		<path fill-rule="evenodd" clip-rule="evenodd" fill="#D2AA32" d="M1509.494,557.922h-117.436v-104.97
			c0-32.429,26.289-58.719,58.719-58.719c32.43,0,58.717,26.29,58.717,58.719V557.922z"/>
		<path fill-rule="evenodd" clip-rule="evenodd" fill="#FECE9A" d="M1426.271,872.609h-65.19
			c-68.829,0-124.626-55.799-124.626-124.627V609.934c0-86.832,70.39-157.221,157.222-157.221c86.832,0,157.22,70.39,157.22,157.221
			v138.049C1550.896,816.811,1495.1,872.609,1426.271,872.609z"/>
		<path fill-rule="evenodd" clip-rule="evenodd" fill="#F5D441" d="M1393.676,426.828v-4.793
			c-99.52,0-180.195,80.675-180.195,180.194V616.4C1313.842,611.39,1393.676,528.434,1393.676,426.828z"/>
		<path fill-rule="evenodd" clip-rule="evenodd" fill="#F5BB8B" d="M1214.483,686.387h21.972v-72.535h-21.972
			c-20.03,0-36.268,16.237-36.268,36.268C1178.215,670.15,1194.453,686.387,1214.483,686.387z"/>
		<path fill-rule="evenodd" clip-rule="evenodd" fill="#F5BB8B" d="M1573.744,686.387h-21.971v-72.535h21.971
			c20.031,0,36.268,16.237,36.268,36.268C1610.012,670.15,1593.775,686.387,1573.744,686.387z"/>
		<circle fill-rule="evenodd" clip-rule="evenodd" fill="#80452A" cx="1313.627" cy="637.256" r="18.21"/>
		<circle fill-rule="evenodd" clip-rule="evenodd" fill="#80452A" cx="1457.807" cy="637.256" r="18.211"/>
		<path fill-rule="evenodd" clip-rule="evenodd" fill="#F5BB8B" d="M1390.799,687.326c-8.734,0-15.817-7.082-15.817-15.816v-3.797
			h31.636v3.797C1406.618,680.244,1399.537,687.326,1390.799,687.326z"/>
		<path fill-rule="evenodd" clip-rule="evenodd" fill="#F5D441" d="M1614.93,649.239c-22.676,0-41.061-18.384-41.061-41.061V487.224
			h-64.375v146.532c0,35.553,28.822,64.375,64.375,64.375c41.531,0,75.52-32.197,78.422-72.987
			C1645.83,639.345,1631.551,649.239,1614.93,649.239z"/>
		<path fill-rule="evenodd" clip-rule="evenodd" fill="#8E2A30" d="M1390.799,809.74c-26.949,0-48.797-21.846-48.797-48.797v-53.802
			h97.594v53.802C1439.596,787.895,1417.75,809.74,1390.799,809.74z"/>
		<g>
			<rect x="1342.002" y="707.142" fill-rule="evenodd" clip-rule="evenodd" fill="#FFFFFF" width="97.594" height="21.972"/>
		</g>
		<g>
			<g>
				<path fill-rule="evenodd" clip-rule="evenodd" fill="#BA6331" d="M1443.587,592.539c12.208-12.713,29.94-15.771,43.944-3.952
					c5.518,4.658,13.543-3.288,7.982-7.981c-18.643-15.735-43.074-13.58-59.909,3.951
					C1430.573,589.797,1438.544,597.791,1443.587,592.539z"/>
			</g>
		</g>
	</g>
	<path fill-rule="evenodd" clip-rule="evenodd" fill="#FFFFFF" d="M1214.381,683.107c-0.923,5.943,2.348,11.34,7.303,12.057
		c4.955,0.708,9.713-3.529,10.637-9.474c0.922-5.946-1.527-10.798-6.404-11.889C1221.036,672.709,1215.303,677.162,1214.381,683.107
		z"/>
	<path fill-rule="evenodd" clip-rule="evenodd" fill="#DA5465" d="M1344.642,776.453c18.294-18.877,61.269-15.13,94.751-10.613
		c-1.745,42.595-67.596,68.697-95.032,10.937L1344.642,776.453z"/>
</g>
<path opacity="0.19" fill-rule="evenodd" clip-rule="evenodd" d="M851.002,1392.444l0.069,0.001l58.498-0.001l58.499,0.001
	l0.055-0.001h25.605c7.564,0,13.034-6.146,12.152-13.659l-24.66-210.252c-0.878-7.512-7.785-13.66-15.35-13.66h-25.607l-0.055-0.001
	H823.213h-25.662v0.001c-7.565,0-13.034,6.146-12.152,13.66L807.29,1355.2l-11.078,27.171c-2.259,5.539,0.791,10.074,6.772,10.074
	h10.104l0.17,0.002l36.752-0.001l0.188-0.002H851.002z"/>
<path opacity="0.29" fill-rule="evenodd" clip-rule="evenodd" d="M969.766,1368.855c10.39,1.954,22.749,23.916-1.643,31.831H527.858
	c-8.292,0-14.98-5.247-14.98-11.7v-8.431c0-6.454,6.688-11.7,14.979-11.7H969.766z"/>
<g>
	<path fill-rule="evenodd" clip-rule="evenodd" fill="#7C778F" d="M532.127,949.587c-3.612,7.967-4.332,16.273-2.573,23.258
		c1.631,6.481,5.423,11.753,10.984,14.277l-5.086,11.289c-9.205-4.179-15.379-12.496-17.913-22.563
		c-2.408-9.562-1.498-20.768,3.299-31.349L532.127,949.587z"/>
	<path fill-rule="evenodd" clip-rule="evenodd" fill="#7C778F" d="M540.539,987.122c5.592,2.533,12.071,1.917,18.021-1.127
		c6.392-3.271,12.154-9.279,15.767-17.25l11.289,5.086c-4.798,10.584-12.64,18.66-21.437,23.161
		c-9.243,4.729-19.551,5.575-28.727,1.419L540.539,987.122z"/>
	<polygon fill-rule="evenodd" clip-rule="evenodd" fill="#006991" points="574.326,968.745 686.004,722.392 697.292,727.479 
		585.615,973.831 	"/>
	<path fill-rule="evenodd" clip-rule="evenodd" fill="#7C778F" d="M685.956,722.512l0.005-0.01l0.048-0.121
		c3.612-7.967,4.33-16.271,2.572-23.254c-1.63-6.478-5.421-11.748-10.98-14.269l2.426-5.384l2.535-5.955l0.005,0.002l0.121,0.048
		c9.203,4.175,15.375,12.489,17.91,22.554c2.407,9.561,1.498,20.766-3.299,31.344l-5.123-2.309L685.956,722.512z"/>
	<path fill-rule="evenodd" clip-rule="evenodd" fill="#006991" d="M677.595,684.855c-5.592-2.533-12.071-1.917-18.021,1.126
		c-6.392,3.271-12.154,9.278-15.767,17.245l-11.289-5.086c4.796-10.58,12.639-18.656,21.436-23.156
		c9.243-4.729,19.551-5.574,28.726-1.418L677.595,684.855z"/>
	<polygon fill-rule="evenodd" clip-rule="evenodd" fill="#006991" points="643.808,703.227 532.127,949.587 520.838,944.5 
		632.519,698.141 	"/>
	<path fill-rule="evenodd" clip-rule="evenodd" fill="#1B4C75" d="M649.032,663.041c-9.012,19.874-0.205,43.287,19.669,52.291
		c19.873,9.018,43.284,0.21,52.292-19.664c9.008-19.874,0.205-43.285-19.669-52.292C681.45,634.371,658.041,643.166,649.032,663.041
		z"/>
	<path fill-rule="evenodd" clip-rule="evenodd" fill="#006991" d="M643.383,660.507l0.005-0.01h-0.001
		c5.211-11.497,14.587-19.791,25.533-23.907c10.949-4.117,23.465-4.061,34.947,1.142l0.004,0.002
		c11.495,5.212,19.791,14.587,23.907,25.533c4.118,10.947,4.063,23.461-1.14,34.94l-0.008-0.004v0.022
		c-5.213,11.491-14.59,19.784-25.53,23.897c-10.944,4.117-23.454,4.063-34.929-1.14l0.008-0.019l-0.023-0.011l-0.008,0.019
		c-11.494-5.211-19.787-14.587-23.904-25.53C638.128,684.497,638.183,671.984,643.383,660.507L643.383,660.507z M654.672,665.594
		c-3.801,8.388-3.846,17.516-0.848,25.489c3,7.974,9.041,14.806,17.411,18.601l0.02,0.011h0.004
		c8.387,3.802,17.511,3.849,25.482,0.851c7.974-2.998,14.805-9.039,18.601-17.406h0.001l0.007-0.018
		c3.803-8.391,3.849-17.521,0.85-25.494c-3-7.977-9.042-14.809-17.415-18.604l-0.004-0.002c-8.393-3.803-17.525-3.851-25.5-0.851
		c-7.977,2.998-14.809,9.041-18.604,17.414L654.672,665.594L654.672,665.594z"/>
	<path fill-rule="evenodd" clip-rule="evenodd" fill="#006991" d="M634.998,1263.024c3.08,8.192,8.441,14.572,14.615,18.263
		c5.739,3.431,12.158,4.477,17.888,2.323l4.36,11.579c-9.448,3.551-19.686,2.033-28.594-3.293
		c-8.471-5.063-15.758-13.635-19.848-24.512L634.998,1263.024z"/>
	<path fill-rule="evenodd" clip-rule="evenodd" fill="#006991" d="M667.5,1283.61c5.731-2.156,9.869-7.168,11.922-13.524
		c2.213-6.852,2.042-15.186-1.037-23.374l11.579-4.359c4.092,10.878,4.263,22.126,1.231,31.512
		c-3.192,9.882-9.891,17.771-19.335,21.325L667.5,1283.61z"/>
	<polygon fill-rule="evenodd" clip-rule="evenodd" fill="#006991" points="678.385,1246.712 583.155,993.545 594.734,989.186 
		689.964,1242.353 	"/>
	<path fill-rule="evenodd" clip-rule="evenodd" fill="#006991" d="M594.804,989.42l0.002,0.008l-6.036,1.995l-5.618,2.115
		c-3.081-8.188-8.442-14.567-14.614-18.258c-5.737-3.431-12.151-4.476-17.879-2.322l-2.109-5.602l-2.376-5.928l0.004-0.002
		l0.121-0.048c9.445-3.551,19.679-2.032,28.584,3.291c8.47,5.063,15.757,13.636,19.847,24.508L594.804,989.42z"/>
	<path fill-rule="evenodd" clip-rule="evenodd" fill="#006991" d="M550.656,972.959c-5.732,2.157-9.87,7.169-11.924,13.526
		c-2.213,6.851-2.043,15.186,1.037,23.374l-11.579,4.359c-4.093-10.88-4.263-22.126-1.231-31.512
		c3.192-9.882,9.892-17.772,19.337-21.326L550.656,972.959z"/>
	<polygon fill-rule="evenodd" clip-rule="evenodd" fill="#006991" points="539.769,1009.859 634.998,1263.024 623.418,1267.385 
		528.19,1014.219 	"/>
	<path fill-rule="evenodd" clip-rule="evenodd" fill="#1B4C75" d="M515.047,977.736c7.68,20.425,30.461,30.748,50.882,23.066
		c20.423-7.68,30.752-30.457,23.069-50.883c-7.682-20.425-30.462-30.753-50.885-23.07
		C517.691,934.533,507.364,957.317,515.047,977.736z"/>
	<path fill-rule="evenodd" clip-rule="evenodd" fill="#006991" d="M520.832,975.545l0.007,0.018
		c3.238,8.606,9.656,15.086,17.415,18.602c7.771,3.522,16.879,4.086,25.48,0.854l0.022-0.008
		c8.607-3.237,15.088-9.655,18.604-17.412c3.508-7.739,4.082-16.803,0.896-25.375l-0.458-1.069v-0.098
		c-3.353-8.091-9.563-14.193-17.006-17.567c-7.775-3.525-16.889-4.088-25.496-0.851l-0.015,0.006
		c-8.602,3.241-15.079,9.659-18.595,17.416C518.162,957.833,517.6,966.943,520.832,975.545L520.832,975.545z M533.167,1005.454
		c-10.592-4.801-19.365-13.621-23.831-25.333l-0.004-0.009l-0.075-0.197c-4.444-11.813-3.684-24.302,1.14-34.94
		c4.801-10.592,13.62-19.365,25.328-23.834l0.986-0.492h0.368c11.475-3.979,23.504-3.116,33.8,1.552
		c10.654,4.831,19.467,13.727,23.911,25.538l0.413,1.096v0.046c3.979,11.479,3.115,23.509-1.552,33.805
		c-4.828,10.647-13.715,19.454-25.514,23.897l-0.031,0.012C556.291,1011.036,543.804,1010.274,533.167,1005.454z"/>
	<path fill-rule="evenodd" clip-rule="evenodd" fill="#1B4C75" d="M700.643,1330.264c0,24.932-20.213,45.148-45.149,45.148
		c-24.936,0-45.149-20.217-45.149-45.148c0-24.941,20.213-45.151,45.149-45.151C680.429,1285.112,700.643,1305.322,700.643,1330.264
		z"/>
	<path fill-rule="evenodd" clip-rule="evenodd" fill="#1E476C" d="M794.7,1348.131c0,20.26-16.423,36.683-36.683,36.683H566.131
		c-20.26,0-36.683-16.423-36.683-36.683c0-20.261,16.423-36.685,36.683-36.685h191.886
		C778.277,1311.446,794.7,1327.87,794.7,1348.131z"/>
	<path fill-rule="evenodd" clip-rule="evenodd" fill="#2A98A6" d="M798.463,1347.193c0,19.741-16.002,35.741-35.746,35.741h-94.059
		c-19.743,0-35.744-16-35.744-35.741c0-19.743,16.001-35.747,35.744-35.747h94.059
		C782.46,1311.446,798.463,1327.45,798.463,1347.193z"/>
	<g>
		<path fill-rule="evenodd" clip-rule="evenodd" fill="#006991" d="M796.556,652.879c19.834,19.829,19.834,51.994,0,71.828
			c-19.839,19.836-51.998,19.836-71.833,0l-51.879-51.877c-19.839-19.842-19.839-51.994,0-71.837
			c19.835-19.83,51.994-19.83,71.833,0L796.556,652.879z"/>
		<path fill-rule="evenodd" clip-rule="evenodd" fill="#FFFFFF" d="M723.724,607.982c6.06,6.057,6.06,15.883,0,21.946
			c-6.058,6.063-15.889,6.063-21.949,0l-9.974-9.976c-6.063-6.063-6.063-15.891,0-21.947c6.06-6.062,15.886-6.062,21.946,0
			L723.724,607.982z"/>
		<path fill-rule="evenodd" clip-rule="evenodd" fill="#1B4C75" d="M712.75,660.858c5.51,5.512,5.51,14.44,0,19.951
			s-14.442,5.511-19.952,0l-25.939-25.937c-5.511-5.511-5.511-14.445,0-19.957c5.508-5.506,14.443-5.506,19.951,0L712.75,660.858z"
			/>
		<path fill-rule="evenodd" clip-rule="evenodd" fill="#006991" d="M956.182,700.76l-91.787-91.785
			c-33.06-33.058-86.662-33.058-119.718,0l-59.862,59.865c-33.056,33.057-33.056,86.66,0,119.718l91.788,91.786L956.182,700.76z"/>
		<path fill-rule="evenodd" clip-rule="evenodd" fill="#FFFFFF" d="M893.327,677.818c7.166,7.158,7.166,18.776,0,25.941
			c-7.162,7.159-18.773,7.159-25.938,0l-75.824-75.826c-7.162-7.166-7.162-18.777,0-25.938c7.166-7.164,18.778-7.164,25.939,0
			L893.327,677.818z"/>
		<path fill-rule="evenodd" clip-rule="evenodd" fill="#1B4C75" d="M805.534,825.473c9.367,9.37,9.369,24.549,0,33.918
			c-9.37,9.369-24.553,9.369-33.92,0l-95.777-95.776c-9.367-9.365-9.37-24.549,0-33.919c9.37-9.369,24.553-9.369,33.92,0
			L805.534,825.473z"/>
		<path fill-rule="evenodd" clip-rule="evenodd" fill="#F5D441" d="M954.325,698.635c-12.123-12.127-62.182,18.28-111.811,67.905
			c-49.624,49.63-80.03,99.684-67.909,111.809c12.124,12.127,62.181-18.285,111.81-67.911
			C936.041,760.813,966.445,710.752,954.325,698.635z"/>
		<path fill-rule="evenodd" clip-rule="evenodd" fill="#F5D441" d="M896.32,756.636c8.816,8.812,0.777,31.151-17.956,49.878
			c-18.733,18.738-41.068,26.773-49.884,17.961c-8.815-8.812-0.777-31.149,17.959-49.883
			C865.172,755.858,887.506,747.818,896.32,756.636z"/>
	</g>
</g>
<line fill-rule="evenodd" clip-rule="evenodd" fill="none" stroke="#F5D441" stroke-width="7.7992" stroke-linecap="round" stroke-miterlimit="10" x1="559.096" y1="1389.163" x2="559.096" y2="1655.866"/>
<path fill-rule="evenodd" clip-rule="evenodd" d="M564.021,1381.775h9.85c0-0.142,0-0.281-0.002-0.422h-9.851
	c0.003,0.141,0.004,0.28,0.004,0.422H564.021z"/>
<path opacity="0.4" fill-rule="evenodd" clip-rule="evenodd" d="M564.019,1381.354h9.851c-0.032-2.915-0.392-5.61-0.842-7.964
	c-0.473-2.464-1.051-4.569-1.469-6.099c-0.277-1.002-0.483-1.799-0.515-2.002l-0.005-0.028l-2.292,0.331h-7.54
	c0.001,0.446,0.041,0.776,0.082,1.075c0.043,0.297,0.094,0.561,0.15,0.816c0.109,0.51,0.236,0.996,0.377,1.52
	c0.278,1.038,0.614,2.214,0.942,3.544C563.385,1375.084,563.973,1378.161,564.019,1381.354L564.019,1381.354z M568.747,1365.592
	 M568.747,1365.592"/>
<rect x="564.041" y="1381.775" opacity="0.48" fill-rule="evenodd" clip-rule="evenodd" width="9.812" height="32.014"/>
<rect x="570.056" y="1413.738" opacity="0.48" fill-rule="evenodd" clip-rule="evenodd" width="9.85" height="248.45"/>
<path fill-rule="evenodd" clip-rule="evenodd" fill="none" stroke="#F5D441" stroke-width="14.072" stroke-linecap="round" stroke-linejoin="round" stroke-miterlimit="10" d="
	M559.096,1389.163c0-3.637,0-6.743,0-9.245l6.402-9.851"/>
<g>
	<path fill-rule="evenodd" clip-rule="evenodd" fill="#6CC8C1" d="M809.481,1378.785c0.881,7.514,7.79,13.66,15.354,13.66
		l142.658-0.001c7.564,0,13.033-6.146,12.151-13.659l-24.659-210.252c-0.878-7.512-7.786-13.66-15.351-13.66l-142.658-0.001
		c-7.565,0-13.032,6.149-12.151,13.661L809.481,1378.785z"/>
	<path fill-rule="evenodd" clip-rule="evenodd" fill="#006991" d="M941.833,1383.381c1.05,0,1.903-0.339,2.471-0.974
		c0.565-0.636,0.802-1.522,0.68-2.565l-24.659-210.253c-0.347-2.957-3.372-5.649-6.35-5.649l-142.658-0.001
		c-1.052,0-1.905,0.337-2.47,0.973c-0.568,0.637-0.802,1.523-0.68,2.564l24.657,210.256c0.348,2.956,3.374,5.649,6.351,5.649
		H941.833z"/>
	<path fill-rule="evenodd" clip-rule="evenodd" fill="#1E476C" d="M771.316,1154.872h142.657c7.562,0,14.474,6.147,15.355,13.661
		l24.653,210.252c0.882,7.514-4.585,13.66-12.149,13.66l-142.658-0.001c-7.564,0-14.473-6.146-15.354-13.659l-24.656-210.252
		C758.282,1161.02,763.751,1154.873,771.316,1154.872L771.316,1154.872z M777.942,1173.006l23.607,201.309h133.653l-23.607-201.309
		H777.942z"/>
	<path fill-rule="evenodd" clip-rule="evenodd" fill="#164A5F" d="M786.495,1388.454h2.52c-1.206-1.068-2.255-2.313-3.092-3.685
		C785.793,1386.127,786.002,1387.373,786.495,1388.454z"/>
	<path opacity="0.33" fill-rule="evenodd" clip-rule="evenodd" d="M801.549,1374.314h63.663l1.595-112.066
		c0.084-5.981-4.74-10.877-10.723-10.877h-10.605c-5.981,0-12.565,4.596-14.629,10.213l-32.235,87.707L801.549,1374.314z"/>
	<path opacity="0.29" fill-rule="evenodd" clip-rule="evenodd" d="M789.015,1388.454h73.517c1.573-1.879,2.543-4.283,2.581-6.896
		l0.1-7.244h-63.663l-2.935-25.023l-12.104,32.938c-0.32,0.876-0.514,1.729-0.588,2.541
		C786.759,1386.141,787.811,1387.386,789.015,1388.454z"/>
	<path fill-rule="evenodd" clip-rule="evenodd" fill="#0C192C" d="M779.56,1382.116c-1.881,5.682,1.481,10.329,7.464,10.331
		l36.751-0.001c5.982,0,12.083-4.743,13.553-10.541l30.411-119.983c1.47-5.801-2.223-10.545-8.204-10.545l-25.877-0.004
		c-5.985,0-12.415,4.65-14.293,10.329L779.56,1382.116z"/>
	<path fill-rule="evenodd" clip-rule="evenodd" fill="#1E476C" d="M769.976,1382.371c-2.259,5.539,0.791,10.074,6.772,10.074
		l36.752,0.001c5.985,0,12.083-4.743,13.553-10.543l30.411-119.981c1.47-5.801-2.223-10.545-8.205-10.545l-14.999-0.004
		c-5.981,0-12.723,4.534-14.982,10.074L769.976,1382.371z"/>
</g>
<path fill-rule="evenodd" clip-rule="evenodd" fill="#FFFFFF" d="M2335.223,731.641h37.326c9.912,0,18.023,8.111,18.023,18.023
	s-8.111,18.023-18.023,18.023h-37.326c-9.912,0-18.023-8.11-18.023-18.023C2317.199,739.752,2325.311,731.641,2335.223,731.641z"/>
<path opacity="0.37" fill-rule="evenodd" clip-rule="evenodd" d="M1900.508,1237.535c-6.551,0.564-11.719,1.848-15.258,4.267
	c-4.264,2.913-6.545,8.469-6.545,17.965c0,11.243,3.191,21.213,9.145,28.06c3.293,3.786,7.537,6.643,12.658,8.226V1237.535
	L1900.508,1237.535z M2027.887,1285.062c0,3.36-2.166,6.238-5.17,7.31v0.447c0,1.771-0.602,3.409-1.611,4.719v40.557
	c0,4.267-3.49,7.758-7.756,7.758h-104.293c-4.266,0-7.756-3.491-7.756-7.758v-21.963c-11.539-1.902-20.996-7.516-28.07-15.653
	c-9.063-10.421-13.918-24.877-13.918-40.711c0-16.666,5.236-27.258,15.029-33.949c7.068-4.829,16.094-7.053,26.959-7.767v-14.338
	c0-0.333,0.02-0.661,0.061-0.984c-0.041-0.251-0.061-0.504-0.061-0.763c-0.004-3.305,3.486-6.01,7.754-6.01l0,0h95.289v-0.001
	h-5.818c-2.143,0-3.879-1.736-3.879-3.878c0-2.143,1.736-3.879,3.879-3.879h9.697c2.143,0,3.879,1.736,3.879,3.879v3.879h1.248l0,0
	c4.266,0,7.756,2.705,7.756,6.01c0.002,0.507-0.002,0.998-0.006,1.468c-0.025-0.711-0.148-1.398-0.355-2.05l0.021,0.069l0.029,0.095
	l0.004,0.015l0.012,0.039l0.035,0.131l0.004,0.01l0.002,0.01l0.035,0.143l0.014,0.053l0.031,0.146l0.004,0.016l0.006,0.023
	l0.029,0.153l0.002,0.008l0.002,0.009l0.023,0.139l0.008,0.039l0.002,0.015l0.021,0.144l0.008,0.063
	c0.023,0.175,0.041,0.352,0.051,0.529l0.002,0.011c0.004,0.064,0.006,0.129,0.008,0.193v0.001c0.004,0.093,0.006,0.186,0.006,0.278
	l0.002,51.737c3.811,0.482,6.781,3.759,6.781,7.696V1285.062L2027.887,1285.062z M1901.379,1202.614L1901.379,1202.614l0.002-0.019
	L1901.379,1202.614L1901.379,1202.614z M1901.395,1202.5L1901.395,1202.5l0.02-0.113l0.016-0.085l0.008-0.043v-0.005l-0.008,0.048
	l-0.016,0.085L1901.395,1202.5L1901.395,1202.5z M1902.07,1200.351l0.049-0.101L1902.07,1200.351L1902.07,1200.351l-0.002,0.002
	l-0.035,0.075l-0.021,0.048l-0.037,0.077l-0.045,0.103l-0.014,0.035l-0.01,0.022l-0.047,0.113l-0.01,0.025l-0.006,0.011
	l-0.039,0.104l-0.006,0.016l-0.025,0.063l-0.008,0.026 M1902.119,1200.25L1902.119,1200.25l0.016-0.032L1902.119,1200.25
	L1902.119,1200.25z M1902.674,1199.316l0.014-0.02l0.064-0.09L1902.674,1199.316L1902.674,1199.316z M1902.752,1199.207
	L1902.752,1199.207l0.014-0.02L1902.752,1199.207L1902.752,1199.207z M1902.982,1198.901l0.025-0.032l0.025-0.031l0.111-0.133
	l0.021-0.027l0.014-0.015C1903.111,1198.741,1903.045,1198.821,1902.982,1198.901L1902.982,1198.901z M1903.305,1198.52
	l-0.072,0.081l-0.012,0.015l-0.014,0.017 M1903.307,1198.519L1903.307,1198.519l0.074-0.082l0.016-0.016l0.051-0.053l0.01-0.012
	l0.078-0.079h-0.002C1903.457,1198.355,1903.381,1198.437,1903.307,1198.519L1903.307,1198.519z M1903.541,1198.27l0.113-0.112
	l-0.031,0.03l-0.031,0.031L1903.541,1198.27L1903.541,1198.27z M1903.67,1198.143l0.102-0.097l-0.08,0.076L1903.67,1198.143
	L1903.67,1198.143z M1903.771,1198.046L1903.771,1198.046l0.002-0.001l0.016-0.015L1903.771,1198.046L1903.771,1198.046z
	 M1903.797,1198.022l0.043-0.039l0.02-0.019l0.037-0.033L1903.797,1198.022L1903.797,1198.022z M1903.936,1197.897
	L1903.936,1197.897l0.084-0.072l0.016-0.015L1903.936,1197.897L1903.936,1197.897z M1904.063,1197.788l0.025-0.021l0.016-0.014
	l0.074-0.062l0.01-0.009l0.088-0.069l0.012-0.01l0.002-0.001C1904.213,1197.664,1904.137,1197.725,1904.063,1197.788
	L1904.063,1197.788z M1904.338,1197.564l0.012-0.009l0.014-0.009l0.063-0.048l0.023-0.018l0.002-0.001l0.016-0.013l0.107-0.077
	l0.027-0.02l0.107-0.074l0.012-0.009l-0.119,0.083l-0.027,0.02l-0.107,0.077l-0.016,0.013l-0.002,0.001l-0.086,0.065
	 M1904.721,1197.288l0.01-0.006l0.084-0.056l0.016-0.011l-0.004,0.003l-0.012,0.008l-0.084,0.056l-0.008,0.006H1904.721
	L1904.721,1197.288z M1904.895,1197.174l0.012-0.008l0,0L1904.895,1197.174L1904.895,1197.174z M1905,1197.107h0.002l0.018-0.012
	L1905,1197.107L1905,1197.107z M2019.381,1198.852l-0.008-0.009l-0.002-0.004l-0.004-0.005l0,0l-0.004-0.004l-0.004-0.005
	l-0.004-0.004l-0.004-0.005l-0.002-0.003v-0.001l-0.004-0.005l-0.004-0.004l0,0l-0.004-0.005l-0.004-0.004l0,0 M2019.385,1198.856
	L2019.385,1198.856l0.004,0.004l0.004,0.005l0.002,0.004v0.001l0.004,0.004l0.025,0.03l0.004,0.005l0,0l0.002,0.005l0.004,0.004
	l0.004,0.004v0.001l0.004,0.004l0.004,0.005l0.002,0.004l0.004,0.005l0.004,0.004v0.001l0.004,0.004l0.014,0.018l0,0l0.004,0.005
	l0.002,0.004l0.004,0.005l0.004,0.004l0.004,0.005l0.004,0.005l0.002,0.004l0,0l0.004,0.005l0.004,0.004l0.051,0.068
	c-0.018-0.026-0.039-0.053-0.059-0.077 M2019.451,1198.94l-0.004-0.005l-0.002-0.004l-0.004-0.004v-0.001 M2019.645,1199.196
	l0.016,0.022l0.021,0.03L2019.645,1199.196L2019.645,1199.196z M2019.686,1199.254l0.008,0.011l0.002,0.004L2019.686,1199.254
	L2019.686,1199.254z M2019.785,1199.399l0.016,0.022l0.006,0.01l0.014,0.021L2019.785,1199.399L2019.785,1199.399z
	 M2019.898,1199.572l0.004,0.008l-0.016-0.027l0,0L2019.898,1199.572L2019.898,1199.572z M2019.996,1199.729l-0.012-0.02
	l-0.002-0.001l0.018,0.028L2019.996,1199.729L2019.996,1199.729z M2020.078,1199.869l0.006,0.01l0.07,0.125l0.01,0.018
	L2020.078,1199.869L2020.078,1199.869z M2020.164,1200.021l0.004,0.007l-0.002-0.003L2020.164,1200.021L2020.164,1200.021z
	 M2020.168,1200.028l0.078,0.148l-0.002-0.003l-0.004-0.007l-0.061-0.117l-0.006-0.011L2020.168,1200.028L2020.168,1200.028z
	 M2020.326,1200.34l0.006,0.009l-0.08-0.161l0.01,0.02L2020.326,1200.34L2020.326,1200.34z M2020.342,1200.371l0.006,0.009
	l0.051,0.11l0.006,0.012L2020.342,1200.371L2020.342,1200.371z M2020.416,1200.527l0.016,0.037l0.012,0.023l0.031,0.07l0.004,0.011
	l0.02,0.049l0.047,0.113l0.012,0.028l0.004,0.012l0.008,0.018l0.049,0.126l0.006,0.018l0.004,0.012l0.053,0.146l0.006,0.017
	l0.01,0.025l0.047,0.145v0.002l0.002,0.005C2020.652,1201.091,2020.541,1200.805,2020.416,1200.527L2020.416,1200.527z
	 M2020.744,1201.384L2020.744,1201.384 M2020.252,1200.188l-0.006-0.011 M2019.887,1199.553l-0.041-0.061 M2019.863,1199.516
	l0.023,0.037 M2019.973,1199.691l0.01,0.017 M2020.076,1199.865l0.008,0.014 M1904.338,1197.564l-0.049,0.039 M1903.207,1198.632
	l-0.027,0.031 M1901.764,1201.072h0.002 M1991.08,1195.956h-9.4H1991.08C1991.08,1195.956,1991.076,1195.956,1991.08,1195.956
	L1991.08,1195.956z M2019.473,1198.967l0.004,0.005l0.002,0.004l0.004,0.005l0.004,0.004l0.004,0.005l0.004,0.005
	 M2019.434,1198.918l-0.004-0.004l-0.002-0.005 M2019.395,1198.869l0.004,0.005l0.004,0.005l0.004,0.004l0.004,0.004l0.002,0.005
	l0.004,0.005l0.008,0.008 M2019.385,1198.856l0.004,0.004l0.004,0.005 M2019.363,1198.83l-0.004-0.005l-0.004-0.004l-0.004-0.005
	l-0.002-0.003v-0.001l-0.004-0.005l-0.004-0.004 M2019.334,1198.795l0.004,0.004 M2019.367,1198.834l0.004,0.005 M2019.438,1198.922
	l0.004,0.005 M2019.455,1198.944l0.004,0.005"/>
<g>
	
		<path fill-rule="evenodd" clip-rule="evenodd" fill="none" stroke="#006991" stroke-width="18.2648" stroke-linecap="round" stroke-linejoin="round" stroke-miterlimit="10" d="
		M1891.244,1235.611c-24.641,0-38.799,5.771-38.799,30.413c0,24.646,14.158,44.626,38.799,44.626V1235.611z"/>
	<path fill-rule="evenodd" clip-rule="evenodd" fill="#1E476C" d="M1882.857,1339.797c0,4.018,3.289,7.307,7.307,7.307h98.229
		c4.018,0,7.305-3.289,7.305-7.307l-0.002-126.566c0-4.019-3.287-7.306-7.305-7.306h-98.229c-4.02,0-7.305,3.287-7.305,7.306
		V1339.797z"/>
	<path fill-rule="evenodd" clip-rule="evenodd" fill="#ACD8E5" d="M1958.563,1205.925h-68.4H1958.563z"/>
	<path fill-rule="evenodd" clip-rule="evenodd" fill="#5F7E9E" d="M1995.691,1212.968c-0.141-3.899-3.373-7.043-7.301-7.043h-20.975
		c-0.002,0,0,0,0,0h20.977c4.018,0,7.305,2.548,7.305,5.66C1995.697,1212.062,1995.695,1212.524,1995.691,1212.968z"/>
	<polygon fill-rule="evenodd" clip-rule="evenodd" fill="#5F7E9E" points="1967.416,1205.925 1958.563,1205.925 1967.416,1205.925 	
		"/>
	<path fill-rule="evenodd" clip-rule="evenodd" fill="#ACD8E5" d="M1882.916,1212.304c-0.039-0.237-0.059-0.476-0.059-0.719
		c-0.002-3.112,3.285-5.66,7.305-5.66l0,0C1886.457,1205.925,1883.373,1208.718,1882.916,1212.304z"/>
	<path fill-rule="evenodd" clip-rule="evenodd" fill="#006991" d="M1988.008,1317.876h-32.477c-4.018,0-7.307-3.288-7.307-7.307
		v-86.02c0-4.019-3.289-7.307-7.307-7.307h-50.756c-3.705,0-6.789-2.163-7.246-4.939c0.459-3.586,3.541-6.379,7.246-6.379l0,0h68.4
		h8.854h20.977c3.928,0,7.158,3.145,7.297,7.043c-0.018,2.45-0.094,4.275-0.184,4.275c-0.107,0-0.193,3.288-0.193,7.307l0.002,86.02
		C1995.314,1314.588,1992.025,1317.876,1988.008,1317.876z"/>
	
		<polyline fill-rule="evenodd" clip-rule="evenodd" fill="none" stroke="#FFFFFF" stroke-width="7.3057" stroke-linecap="round" stroke-linejoin="round" stroke-miterlimit="10" points="
		1983.563,1266.773 1983.563,1202.271 1974.43,1202.271 	"/>
	<path fill-rule="evenodd" clip-rule="evenodd" fill="#0897A9" d="M1997.215,1297.154c0,4.019-3.289,7.307-7.307,7.307h-26.275
		c-4.018,0-7.307-3.288-7.307-7.307v-24.294c0-4.018,3.289-7.306,7.307-7.306l26.275-0.001c4.018,0,7.305,3.289,7.305,7.307
		L1997.215,1297.154z"/>
	<path fill-rule="evenodd" clip-rule="evenodd" fill="#FFD51E" d="M2002.084,1289.848c0,4.019-3.287,7.307-7.307,7.307h-22.621
		c-4.02,0-7.307-3.288-7.307-7.307v-20.641c0-4.019,3.287-7.306,7.307-7.306h22.621c4.02-0.001,7.307,3.287,7.307,7.306V1289.848z"
		/>
</g>
<polygon opacity="0.38" fill-rule="evenodd" clip-rule="evenodd" points="2091.498,1324.392 2091.498,1320.539 2465.523,1320.542 
	2465.523,1317.942 2487.768,1317.942 2487.768,1343.174 2061.352,1343.174 2061.352,1217.248 2120.348,1217.248 2119.678,1216.663 
	2095.238,1216.663 2095.238,1191.77 2117.35,1191.77 2117.35,1166.354 2117.35,1149.854 2095.238,1149.854 2095.238,1124.626 
	2409.482,1124.626 2474.213,1124.626 2474.213,1216.663 2409.482,1216.663 2359.984,1216.663 2488.117,1217.248 2488.117,1258.335 
	2487.768,1258.335 2487.768,1324.392 "/>
<g>
	<polygon fill-rule="evenodd" clip-rule="evenodd" fill="#1E476C" points="2065.498,1338.392 2065.498,1331.941 2461.768,1331.941 
		2461.768,1357.174 2035.352,1357.174 2035.352,1231.248 2461.768,1231.248 2461.768,1338.392 	"/>
	<rect x="2065.369" y="1257.562" fill-rule="evenodd" clip-rule="evenodd" fill="#98D4C5" width="374.154" height="76.977"/>
	<rect x="2385.037" y="1257.559" fill-rule="evenodd" clip-rule="evenodd" fill="#6D5761" width="33.031" height="76.979"/>
	<rect x="2117.186" y="1275.537" fill-rule="evenodd" clip-rule="evenodd" fill="#6D5761" width="14.215" height="41.018"/>
	<rect x="2091.35" y="1162.678" fill-rule="evenodd" clip-rule="evenodd" fill="#98D4C5" width="326.713" height="43.094"/>
	<polygon fill-rule="evenodd" clip-rule="evenodd" fill="#0897A9" points="2418.063,1180.354 2091.35,1180.354 2091.35,1163.854 
		2383.482,1163.856 2418.063,1163.856 	"/>
	<polygon fill-rule="evenodd" clip-rule="evenodd" fill="#006991" points="2418.063,1205.77 2418.063,1163.856 2069.238,1163.854 
		2069.238,1138.625 2448.213,1138.625 2448.213,1230.662 2069.238,1230.662 2069.238,1205.77 	"/>
	<polygon fill-rule="evenodd" clip-rule="evenodd" fill="#1E476C" points="2383.482,1138.625 2383.482,1163.856 2418.063,1163.856 
		2418.063,1205.77 2383.482,1205.77 2383.482,1230.662 2448.213,1230.662 2448.213,1138.625 	"/>
	<polygon fill-rule="evenodd" clip-rule="evenodd" fill="#CFD0A3" points="2462.117,1272.335 2461.768,1272.335 2461.768,1231.248 
		2094.348,1231.248 2093.678,1230.662 2333.984,1230.662 2462.117,1231.248 	"/>
	<polygon fill-rule="evenodd" clip-rule="evenodd" fill="#006991" points="2461.768,1272.335 2439.523,1272.335 2439.523,1257.562 
		2418.068,1257.562 2418.068,1257.559 2385.037,1257.559 2124.42,1257.562 2094.348,1231.248 2461.768,1231.248 	"/>
	<path fill-rule="evenodd" clip-rule="evenodd" fill="#0897A9" d="M2439.523,1272.335h-21.455v-14.776l21.455,0.003V1272.335
		L2439.523,1272.335z M2385.037,1272.335h-243.734l-16.883-14.773h260.617V1272.335z"/>
	<rect x="2385.037" y="1257.559" fill-rule="evenodd" clip-rule="evenodd" fill="#5A473D" width="33.031" height="14.776"/>
	<polygon fill-rule="evenodd" clip-rule="evenodd" fill="#98D4C5" points="2333.984,1230.662 2093.678,1230.662 2092.416,1229.56 	
		"/>
</g>
<path opacity="0.19" fill-rule="evenodd" clip-rule="evenodd" fill="#FFFFFF" d="M332.174,581.796h355.313
	c46.457,0,84.457,38.002,84.457,84.454c0,46.457-38,84.457-84.457,84.457H332.174c-46.457,0-84.458-38-84.458-84.457
	C247.717,619.799,285.717,581.796,332.174,581.796z"/>
<path opacity="0.19" fill-rule="evenodd" clip-rule="evenodd" fill="#FFFFFF" d="M2238.924,897.797h355.313
	c46.457,0,84.457,38.002,84.457,84.453c0,46.457-38,84.457-84.457,84.457h-355.313c-46.457,0-84.457-38-84.457-84.457
	C2154.467,935.799,2192.467,897.797,2238.924,897.797z"/>
<path opacity="0.19" fill-rule="evenodd" clip-rule="evenodd" fill="#FFFFFF" d="M1900.828,1467.396h137.48
	c17.975,0,32.678,14.704,32.678,32.678c0,17.975-14.703,32.679-32.678,32.679h-137.48c-17.977,0-32.68-14.704-32.68-32.679
	C1868.148,1482.1,1882.852,1467.396,1900.828,1467.396z"/>
<path opacity="0.19" fill-rule="evenodd" clip-rule="evenodd" fill="#FFFFFF" d="M1828.648,294.474h444.434
	c17.977,0,32.678,14.704,32.678,32.677c0,17.976-14.701,32.679-32.678,32.679h-444.434c-17.977,0-32.68-14.704-32.68-32.679
	C1795.969,309.178,1810.672,294.474,1828.648,294.474z"/>
<path opacity="0.19" fill-rule="evenodd" clip-rule="evenodd" fill="#FFFFFF" d="M1900.828,1467.396h137.48
	c17.975,0,32.678,14.704,32.678,32.678c0,17.975-14.703,32.679-32.678,32.679h-137.48c-17.977,0-32.68-14.704-32.68-32.679
	C1868.148,1482.1,1882.852,1467.396,1900.828,1467.396z"/>
<path opacity="0.19" fill-rule="evenodd" clip-rule="evenodd" fill="#FFFFFF" d="M1147.172,437.396h137.48
	c17.976,0,32.679,14.704,32.679,32.677c0,17.976-14.703,32.679-32.679,32.679h-137.48c-17.976,0-32.68-14.704-32.68-32.679
	C1114.493,452.1,1129.197,437.396,1147.172,437.396z"/>
</svg>
